<?xml version="1.0" encoding="UTF-8"?>
<!-- Created with Inkscape (http://www.inkscape.org/) -->
<svg width="16mm" height="16mm" preserveAspectRatio="none" version="1.1" viewBox="0 0 16 16" xmlns="http://www.w3.org/2000/svg">
 <g transform="matrix(1.0003 0 0 .99004 .001431 .00069537)" fill="#fff" stroke="#070000" stroke-width=".265">
  <path d="m4.156 4.0159-3.8386-3.8761 3.8473-0.0056c2.116-3e-3 5.5716-3e-3 7.6789 0l3.8315 0.0056-3.7553 3.7935c-2.0654 2.0863-3.7936 3.8306-3.8402 3.8761l-0.084959 0.082562z"/>
  <path d="m4.156 12.143-3.8386 3.8761 3.8473 0.0056c2.116 3e-3 5.5716 3e-3 7.6789 0l3.8315-0.0056-3.7553-3.7935c-2.0654-2.0863-3.7936-3.8306-3.8402-3.8761l-0.084959-0.082562z"/>
 </g>
</svg>
